# xmcd
#
# Track frame offsets:
#        150
#        20853
#        46495
#        63047
#        89053
#        103908
#        120964
#        135080
#        157038
#        182268
#        201369
#        221677
#        235556
#        252797
#
# Disc length: 3766 seconds
#
# Revision: 0
# Processed by: cddbd v1.5.1PL0 Copyright (c) Steve Scherf et al.
# Submitted via: ExactAudioCopy v0.95a5
#
DISCID=ba0eb40e
DTITLE=DJ SHARPNEL - MADBREAKS
DYEAR=2005
DGENRE=Hardcore
TTITLE0=GATE OF DREAMS
TTITLE1=HOT PEPPERZ
TTITLE2=COMPLECKS BABY
TTITLE3=SPEED DISCO VOL.2
TTITLE4=ZETTAI REMIX(Societysuckers)
TTITLE5=BOUNTY WARS
TTITLE6=TOGETHER AS ONE
TTITLE7=YOU DONT KNOW WHAT
TTITLE8=20031023
TTITLE9=SF-C
TTITLE10=SOLITUDE SUN
TTITLE11=SF-R
TTITLE12=AUDIOVISUALISM(MugenjouProject)
TTITLE13=BLUE ARMY
EXTD=
EXTT0=
EXTT1=
EXTT2=
EXTT3=
EXTT4=
EXTT5=
EXTT6=
EXTT7=
EXTT8=
EXTT9=
EXTT10=
EXTT11=
EXTT12=
EXTT13=
PLAYORDER=
